<svg width="98" height="104" viewBox="0 0 98 104" fill="none" xmlns="http://www.w3.org/2000/svg">
<g filter="url(#filter0_dd_289_411)">
<rect x="22" y="12" width="48" height="48" rx="2" fill="#F5E200"/>
<path d="M40.86 33.84C42.0067 33.84 43.0133 34.06 43.88 34.5C44.76 34.94 45.4467 35.56 45.94 36.36C46.4467 37.1467 46.7 38.0733 46.7 39.14C46.7 40.2067 46.4467 41.1667 45.94 42.02C45.4333 42.8733 44.7267 43.5467 43.82 44.04C42.9133 44.5333 41.8533 44.78 40.64 44.78C39.52 44.78 38.52 44.56 37.64 44.12C36.76 43.68 36.0667 43.06 35.56 42.26C35.0533 41.46 34.8 40.5267 34.8 39.46C34.8 38.4067 35.0467 37.46 35.54 36.62C36.0467 35.7667 36.7533 35.0933 37.66 34.6C38.58 34.0933 39.6467 33.84 40.86 33.84ZM40.68 34.2C40.0667 34.2 39.5533 34.66 39.14 35.58C38.74 36.5 38.54 37.7733 38.54 39.4C38.54 40.6 38.6467 41.5733 38.86 42.32C39.0733 43.0533 39.3533 43.5867 39.7 43.92C40.0467 44.2533 40.42 44.42 40.82 44.42C41.4467 44.42 41.96 43.96 42.36 43.04C42.76 42.1067 42.96 40.8267 42.96 39.2C42.96 38 42.8533 37.0333 42.64 36.3C42.4267 35.5667 42.1467 35.0333 41.8 34.7C41.4667 34.3667 41.0933 34.2 40.68 34.2ZM52.6761 33.84C53.3961 33.84 54.0428 33.9333 54.6161 34.12C55.1894 34.3067 55.6361 34.5733 55.9561 34.92C56.2894 35.2533 56.4561 35.6667 56.4561 36.16C56.4561 36.6533 56.2761 37.1267 55.9161 37.58C55.5561 38.02 55.0228 38.4067 54.3161 38.74C53.6094 39.0733 52.7294 39.3133 51.6761 39.46C52.7694 39.3933 53.7294 39.4733 54.5561 39.7C55.3828 39.9267 56.0228 40.28 56.4761 40.76C56.9428 41.24 57.1761 41.8267 57.1761 42.52C57.1761 43.1333 56.9961 43.7 56.6361 44.22C56.2761 44.74 55.7894 45.2 55.1761 45.6C54.5628 46.0133 53.8561 46.36 53.0561 46.64C52.2694 46.9333 51.4428 47.1533 50.5761 47.3C49.7094 47.4467 48.8428 47.52 47.9761 47.52V47.1C48.5628 47.0733 49.1761 46.96 49.8161 46.76C50.4561 46.56 51.0494 46.2667 51.5961 45.88C52.1561 45.5067 52.6094 45.04 52.9561 44.48C53.3028 43.92 53.4761 43.2733 53.4761 42.54C53.4761 41.7533 53.2894 41.1133 52.9161 40.62C52.5561 40.1133 52.0494 39.8333 51.3961 39.78C51.1961 39.8733 51.0094 39.9533 50.8361 40.02C50.6628 40.0867 50.4828 40.12 50.2961 40.12C50.1761 40.12 50.0761 40.1 49.9961 40.06C49.9294 40.02 49.8961 39.9333 49.8961 39.8C49.8961 39.6267 49.9694 39.5067 50.1161 39.44C50.2628 39.3733 50.4294 39.34 50.6161 39.34C50.7228 39.34 50.8294 39.3467 50.9361 39.36C51.0561 39.3733 51.1828 39.3867 51.3161 39.4C51.9028 39.0133 52.3028 38.6067 52.5161 38.18C52.7428 37.74 52.8561 37.3 52.8561 36.86C52.8561 36.2733 52.6961 35.84 52.3761 35.56C52.0561 35.2667 51.6161 35.12 51.0561 35.12C50.5494 35.12 50.0694 35.24 49.6161 35.48C49.1628 35.72 48.7828 36.0733 48.4761 36.54L48.1161 36.34C48.3828 35.9 48.7028 35.4933 49.0761 35.12C49.4628 34.7333 49.9428 34.4267 50.5161 34.2C51.1028 33.96 51.8228 33.84 52.6761 33.84Z" fill="#0A3D6B"/>
</g>
<defs>
<filter id="filter0_dd_289_411" x="-6" y="0" width="104" height="104" filterUnits="userSpaceOnUse" color-interpolation-filters="sRGB">
<feFlood flood-opacity="0" result="BackgroundImageFix"/>
<feColorMatrix in="SourceAlpha" type="matrix" values="0 0 0 0 0 0 0 0 0 0 0 0 0 0 0 0 0 0 127 0" result="hardAlpha"/>
<feMorphology radius="4" operator="erode" in="SourceAlpha" result="effect1_dropShadow_289_411"/>
<feOffset dy="4"/>
<feGaussianBlur stdDeviation="2"/>
<feComposite in2="hardAlpha" operator="out"/>
<feColorMatrix type="matrix" values="0 0 0 0 0.0470588 0 0 0 0 0.0470588 0 0 0 0 0.0509804 0 0 0 0.05 0"/>
<feBlend mode="normal" in2="BackgroundImageFix" result="effect1_dropShadow_289_411"/>
<feColorMatrix in="SourceAlpha" type="matrix" values="0 0 0 0 0 0 0 0 0 0 0 0 0 0 0 0 0 0 127 0" result="hardAlpha"/>
<feMorphology radius="4" operator="erode" in="SourceAlpha" result="effect2_dropShadow_289_411"/>
<feOffset dy="16"/>
<feGaussianBlur stdDeviation="16"/>
<feComposite in2="hardAlpha" operator="out"/>
<feColorMatrix type="matrix" values="0 0 0 0 0.0470588 0 0 0 0 0.0470588 0 0 0 0 0.0509804 0 0 0 0.1 0"/>
<feBlend mode="normal" in2="effect1_dropShadow_289_411" result="effect2_dropShadow_289_411"/>
<feBlend mode="normal" in="SourceGraphic" in2="effect2_dropShadow_289_411" result="shape"/>
</filter>
</defs>
</svg>
